<svg id="Capa_1" enable-background="new 0 0 512 512" height="512" viewBox="0 0 512 512" width="512" xmlns="http://www.w3.org/2000/svg"><g><path d="m408.45 504.5c11.797 0 20.968-10.342 19.483-22.045-10.831-85.313-83.678-151.275-171.933-151.275s-161.102 65.962-171.932 151.275c-1.486 11.703 7.686 22.045 19.483 22.045z" fill="#e0b799"/><path d="m227.206 333.565c-74.888 12.522-133.512 73.06-143.138 148.89-1.486 11.703 7.685 22.045 19.482 22.045h135.454c-30.588-30.91-33.461-144.222-11.798-170.935z" fill="#d1986f"/><path d="m256 48.779c22.838-26.489 63.422-38.383 85.355-41.177 6.642-.846 12.758 3.69 13.968 10.275 3.112 16.935 4.558 40.147 1.353 59.826 18.852-4.768 64.161-2.941 91.811 12.674 7.2 4.066 8.518 13.884 2.752 19.811-9.21 9.467-20.125 16.969-24.696 19.217 6.729 5.068 48.517 26.867 66.769 56.212 4.572 7.351.489 17.04-7.956 18.947-10.48 2.367-23.887 4.411-34.434 4.242 6.927 4.296 35.807 54.786 41.229 86.486 1.135 6.635-3.086 12.971-9.643 14.497-13.501 3.143-34.628 5.599-46.289 6.62 7.194 11.634 18.106 35.939 24.124 54.528 2.581 7.971-3.186 16.179-11.558 16.512-23.603.94-47.405-2.358-60.748-8.417-4.028 24.261-8.591 47.816-14.88 63.26-3.15 7.736-12.785 10.322-19.416 5.242-14.842-11.369-33.492-29.564-43.862-40.103-6.14 11.272-32.47 33.797-46.683 43.662-4.329 3.005-10.06 3.005-14.389 0-14.213-9.865-40.543-32.39-46.683-43.662-10.37 10.539-29.02 28.734-43.862 40.103-6.631 5.079-16.266 2.494-19.416-5.242-6.289-15.443-10.852-38.999-14.88-63.26-13.343 6.059-37.146 9.357-60.748 8.417-8.372-.333-14.139-8.541-11.558-16.512 6.018-18.588 16.93-42.894 24.123-54.528-11.66-1.021-32.788-3.477-46.289-6.62-6.556-1.526-10.778-7.861-9.643-14.497 5.423-31.7 34.302-82.19 41.229-86.486-10.547.169-23.955-1.875-34.434-4.242-8.445-1.907-12.529-11.596-7.956-18.947 18.252-29.345 60.04-51.145 66.769-56.212-4.571-2.248-15.486-9.75-24.696-19.217-5.766-5.927-4.448-15.745 2.752-19.811 27.65-15.615 72.959-17.442 91.811-12.674-3.206-19.679-1.759-42.891 1.353-59.826 1.21-6.586 7.326-11.121 13.968-10.275 21.932 2.793 62.515 14.688 85.353 41.177z" fill="#fbf1cf"/><path d="m248.806 451.093c4.329 3.005 10.059 3.005 14.389 0 3.94-2.734 8.811-6.443 13.924-10.614-44.358-18.648-61.914-75.351-58.142-91.724-42.587-51.398-24.23-143.18 11.748-216.605-32.891-7.59-50.522-63.131-36.001-119.339-9.063-2.673-17.43-4.362-24.079-5.209-6.642-.846-12.758 3.69-13.968 10.275-3.112 16.935-4.559 40.147-1.353 59.826-18.852-4.768-64.161-2.941-91.811 12.675-7.2 4.066-8.518 13.884-2.752 19.811 9.21 9.467 20.125 16.969 24.696 19.217-6.729 5.068-48.517 26.867-66.769 56.212-4.572 7.351-.489 17.04 7.956 18.947 10.479 2.366 23.887 4.411 34.434 4.242-6.927 4.296-35.807 54.786-41.229 86.486-1.135 6.635 3.086 12.97 9.643 14.497 13.501 3.143 34.628 5.599 46.289 6.62-7.193 11.634-18.106 35.939-24.123 54.528-2.581 7.971 3.186 16.179 11.558 16.512 23.603.94 47.405-2.358 60.748-8.417 4.028 24.261 8.591 47.817 14.88 63.26 3.15 7.736 12.785 10.322 19.416 5.242 14.842-11.369 33.492-29.564 43.862-40.103 6.14 11.27 32.471 33.795 46.684 43.661z" fill="#f5e2a2"/><g><g fill="#f5e2a2"><path d="m341.827 379.228c-4.143 0-7.5-3.358-7.5-7.5v-36.124c0-4.142 3.357-7.5 7.5-7.5s7.5 3.358 7.5 7.5v36.124c0 4.142-3.357 7.5-7.5 7.5z"/><path d="m429.56 275.919c-1.919 0-3.839-.733-5.304-2.197l-21.85-21.85c-2.929-2.929-2.929-7.678 0-10.607 2.93-2.929 7.678-2.929 10.607 0l21.85 21.85c2.929 2.929 2.929 7.678 0 10.607-1.464 1.464-3.384 2.197-5.303 2.197z"/><path d="m305.743 110.305c-4.143 0-7.5-3.358-7.5-7.5v-26.623c0-4.142 3.357-7.5 7.5-7.5 4.142 0 7.5 3.358 7.5 7.5v26.623c0 4.142-3.357 7.5-7.5 7.5z"/></g><path d="m126.603 184.29h-32.932c-4.143 0-7.5-3.358-7.5-7.5s3.357-7.5 7.5-7.5h32.932c4.143 0 7.5 3.358 7.5 7.5s-3.358 7.5-7.5 7.5z" fill="#fbf1cf"/><path d="m110.137 338.68c-1.919 0-3.839-.732-5.304-2.197-2.929-2.929-2.929-7.678 0-10.606l23.489-23.489c2.93-2.929 7.678-2.929 10.607 0s2.929 7.678 0 10.607l-23.489 23.489c-1.464 1.463-3.384 2.196-5.303 2.196z" fill="#fbf1cf"/></g><path d="m105.234 236.041c0-77.815 67.5-140.897 150.766-140.897s150.766 63.082 150.766 140.897-67.5 135.687-150.766 135.687-150.766-57.872-150.766-135.687z" fill="#ffd3bd"/><path d="m201.602 104.594c-56.381 20.394-96.367 71.558-96.367 131.447 0 77.815 67.5 135.687 150.766 135.687 10.269 0 20.297-.884 29.99-2.573-162.205-41.049-123.088-210.833-84.389-264.561z" fill="#ffbe9d"/><path d="m256 95.144c-62.381 0-115.91 35.406-138.84 85.888 27.752-2.249 69.786-14.601 87.425-25.184 12.509 14.594 48.98 32.292 67.44 37.808 4.511 1.348 9.42-.091 12.452-3.693 8.477-10.069 15.491-23.524 19.211-34.115 25.387 18.001 56.351 35.339 97.874 43.4-17.315-59.97-75.918-104.104-145.562-104.104z" fill="#4e5660"/><path d="m174.142 168.648c6.54-26.59 17.017-49.553 27.46-64.054-38.002 13.749-68.564 41.481-84.442 76.438 16.64-1.348 38.41-6.33 56.982-12.384z" fill="#383c43"/><g><g fill="#eda1ab"><ellipse cx="161.479" cy="267.684" rx="34.876" ry="27.774"/><ellipse cx="350.521" cy="267.684" rx="34.876" ry="27.774"/></g></g><path d="m499.68 181.657c-14.813-23.816-43.233-42.344-59.199-52.28 4.967-3.631 10.734-8.407 16.135-13.958 9.219-9.476 7.025-25.096-4.44-31.572-2.56-1.444-5.324-2.818-8.218-4.084-3.792-1.66-8.217.073-9.877 3.867-1.659 3.795.072 8.217 3.867 9.877 2.43 1.063 4.735 2.207 6.852 3.402 2.913 1.645 3.409 5.641 1.065 8.051-8.686 8.927-19.024 15.944-22.63 17.716-5.008 2.463-5.665 9.36-1.202 12.722 7.272 5.478 47.672 26.465 64.912 54.183 1.843 2.964.182 6.898-3.24 7.67-11.863 2.679-24.056 4.2-32.661 4.059-3.35-.017-6.366 2.15-7.316 5.386-.93 3.165.32 6.558 3.058 8.368 6.208 5.249 32.942 52.073 37.975 81.496.462 2.701-1.273 5.305-3.95 5.928-13.545 3.153-34.813 5.539-45.243 6.453-5.552.486-8.661 6.667-5.725 11.416 7.104 11.487 17.805 35.709 23.367 52.892 1.052 3.25-1.308 6.572-4.721 6.708-22.15.885-45.194-2.233-57.35-7.752-4.477-2.034-9.691.731-10.499 5.601-2.916 17.564-7.664 45.054-14.428 61.66-1.295 3.179-5.223 4.175-7.91 2.116-15.761-12.073-35.375-31.582-43.077-39.41-3.526-3.585-9.526-2.746-11.932 1.673-5.228 9.597-30.134 31.205-44.374 41.088-1.744 1.212-4.089 1.212-5.835 0-14.239-9.884-39.146-31.492-44.373-41.088-2.405-4.416-8.404-5.26-11.932-1.673-7.702 7.828-27.316 27.337-43.077 39.41-2.688 2.061-6.616 1.06-7.91-2.116-6.746-16.564-11.486-43.937-14.428-61.66-.807-4.862-6.012-7.638-10.499-5.601-12.155 5.519-35.21 8.636-57.35 7.752-3.411-.136-5.773-3.457-4.721-6.708 5.562-17.184 16.264-41.406 23.367-52.893 2.931-4.741-.163-10.929-5.725-11.416-10.431-.914-31.698-3.3-45.243-6.453-2.677-.623-4.412-3.227-3.95-5.928 5.032-29.423 31.767-76.247 37.975-81.496 2.737-1.811 3.987-5.203 3.058-8.368-.95-3.235-3.97-5.423-7.316-5.386-8.589.137-20.798-1.379-32.662-4.059-3.419-.772-5.083-4.704-3.239-7.67 17.305-27.821 57.43-48.546 64.912-54.182 4.457-3.357 3.814-10.255-1.202-12.722-3.605-1.772-13.944-8.789-22.63-17.716-2.342-2.408-1.852-6.404 1.064-8.05 25.202-14.232 67.934-16.574 86.283-11.934 5.234 1.324 10.107-3.16 9.241-8.476-3.186-19.561-1.403-42.406 1.328-57.265.493-2.69 2.964-4.534 5.644-4.19 19.74 2.514 58.936 13.481 80.622 38.634 2.989 3.466 8.369 3.47 11.361 0 21.686-25.154 60.882-36.12 80.623-38.634 2.655-.342 5.149 1.5 5.643 4.191 2.731 14.858 4.514 37.704 1.328 57.265-.866 5.318 4.011 9.801 9.241 8.476 8.928-2.258 26.971-3.198 47.151-.21 4.083.604 7.91-2.222 8.518-6.32.606-4.098-2.223-7.911-6.32-8.518-14.815-2.194-30.354-2.612-42.522-1.291 1.411-16.248.499-35.014-2.643-52.112-1.934-10.521-11.732-17.707-22.292-16.36-25.038 3.185-60.9 14.931-84.409 37.705-23.509-22.774-59.371-34.521-84.407-37.709-10.57-1.345-20.36 5.839-22.292 16.36-3.144 17.1-4.055 35.866-2.644 52.115-23.785-2.582-62.11 1.249-86.833 15.21-11.465 6.475-13.658 22.096-4.439 31.571 5.4 5.551 11.168 10.327 16.135 13.958-15.966 9.937-44.387 28.464-59.199 52.28-7.278 11.698-.813 27.18 12.672 30.225 4.042.913 12.202 2.602 21.262 3.611-12.634 19.499-29.678 54.455-33.797 78.537-1.798 10.514 4.938 20.645 15.335 23.066 10.313 2.4 24.641 4.364 35.907 5.631-6.847 13.36-14.564 31.651-19.178 45.901-4.11 12.701 5.045 25.784 18.395 26.316 19.633.78 38.963-1.195 53.409-5.263-21.707 26.356-35.4 57.977-39.697 91.83-2.056 16.178 10.618 30.49 26.922 30.49h16.658c4.143 0 7.5-3.358 7.5-7.5s-3.357-7.5-7.5-7.5h-16.658c-7.13 0-12.979-6.221-12.042-13.601 3.498-27.556 13.811-53.49 30.01-75.879 2.865 14.053 6.247 27.454 10.379 37.601 5.019 12.322 20.354 16.462 30.924 8.367 13.144-10.068 28.628-24.851 38.396-34.527 11.104 13.188 32.044 30.472 43.311 38.293 1.254.871 2.589 1.578 3.972 2.131v37.615h-92.516c-4.143 0-7.5 3.358-7.5 7.5s3.357 7.5 7.5 7.5h252.465c16.307 0 28.977-14.316 26.923-30.49-4.297-33.854-17.99-65.474-39.697-91.83 14.448 4.069 33.783 6.043 53.409 5.263 13.341-.532 22.507-13.608 18.395-26.316-4.613-14.25-12.331-32.541-19.178-45.901 11.267-1.267 25.595-3.231 35.907-5.631 10.397-2.42 17.133-12.552 15.335-23.066-4.083-23.872-21.059-58.878-33.797-78.536 9.059-1.01 17.22-2.699 21.261-3.611 13.491-3.048 19.947-18.532 12.672-30.225zm-79.189 301.743c.94 7.395-4.928 13.601-12.042 13.601h-144.949v-37.616c1.383-.552 2.717-1.26 3.971-2.13 11.268-7.821 32.209-25.105 43.313-38.293 9.768 9.676 25.252 24.459 38.396 34.527 10.561 8.091 25.903 3.96 30.924-8.367 4.132-10.147 7.513-23.548 10.379-37.601 16.197 22.389 26.511 48.322 30.008 75.879zm-164.491-395.756c-86.32 0-158.266 65.76-158.266 148.397 0 82.779 71.728 143.186 158.266 143.186 86.342 0 158.266-60.236 158.266-143.186 0-81.959-71.167-148.397-158.266-148.397zm0 15c61.213 0 113.573 35.935 134.05 86.335-36.505-9.288-62.782-25.606-82.023-39.25-4.067-2.883-9.765-1.063-11.414 3.632-3.071 8.743-9.38 21.681-17.874 31.771-1.104 1.312-2.897 1.835-4.566 1.336-18.112-5.411-52.921-22.703-63.893-35.502-2.38-2.777-6.417-3.433-9.553-1.55-14.33 8.597-45.225 18.194-70.233 22.357 24.416-41.175 71.518-69.129 125.506-69.129zm0 261.584c-77.492 0-143.266-53.143-143.266-128.186 0-16.905 3.403-33.082 9.591-47.979 25.807-2.883 61.155-12.945 80.869-22.908 16.79 15.514 50.56 30.87 66.684 35.686 7.4 2.212 15.383-.164 20.336-6.049 7.149-8.493 12.938-18.684 16.91-27.456 20.222 13.58 49.444 29.969 88.39 38.325 2.451 9.762 3.751 19.932 3.751 30.38.001 75.301-66.071 128.187-143.265 128.187zm74.196-150.867c-13.289 0-24.101 10.811-24.101 24.1 0 4.142 3.357 7.5 7.5 7.5s7.5-3.358 7.5-7.5c0-5.018 4.082-9.1 9.101-9.1 5.018 0 9.1 4.083 9.1 9.1 0 4.142 3.357 7.5 7.5 7.5s7.5-3.358 7.5-7.5c-.001-13.289-10.812-24.1-24.1-24.1zm-51.661 37.848c-3.123-2.721-7.86-2.396-10.581.727-3.019 3.463-7.375 5.45-11.954 5.45s-8.936-1.986-11.955-5.45c-2.723-3.123-7.46-3.448-10.582-.726-3.123 2.722-3.447 7.459-.727 10.582 5.869 6.733 14.348 10.595 23.264 10.595s17.396-3.862 23.263-10.595c2.722-3.125 2.395-7.862-.728-10.583zm-96.73-37.848c-13.288 0-24.1 10.811-24.1 24.1 0 4.142 3.357 7.5 7.5 7.5s7.5-3.358 7.5-7.5c0-5.018 4.082-9.1 9.1-9.1 5.019 0 9.101 4.083 9.101 9.1 0 4.142 3.357 7.5 7.5 7.5s7.5-3.358 7.5-7.5c0-13.289-10.812-24.1-24.101-24.1z"/></g></svg>