<?xml version="1.0" encoding="utf-8"?>
<!-- Generator: Adobe Illustrator 20.0.0, SVG Export Plug-In . SVG Version: 6.00 Build 0)  -->
<svg version="1.1" id="Laag_1" xmlns="http://www.w3.org/2000/svg" xmlns:xlink="http://www.w3.org/1999/xlink" x="0px" y="0px"
	 width="344.4px" height="425.9px" viewBox="0 0 344.4 425.9" style="enable-background:new 0 0 344.4 425.9;" xml:space="preserve"
	>
<style type="text/css">
	.st0{fill:#CB9252;}
	.st1{fill:#FFFFFF;}
	.st2{opacity:0.2;fill:#1D1D1B;enable-background:new    ;}
	.st3{clip-path:url(#SVGID_2_);}
	.st4{fill:#004C78;}
	.st5{opacity:0.15;fill:#1D1D1B;enable-background:new    ;}
	.st6{fill:#1D1D1B;}
	.st7{fill:#CC9669;}
	.st8{fill:none;}
	.st9{fill:#F0801A;}
	.st10{clip-path:url(#SVGID_4_);}
	.st11{fill:#65242A;}
	.st12{fill:#47291D;}
	.st13{fill:#855134;}
	.st14{fill:#CF7855;}
	.st15{clip-path:url(#SVGID_6_);}
	.st16{opacity:0.41;}
	.st17{fill:#5B3B25;}
	.st18{opacity:0.3;}
	.st19{fill:none;stroke:#F0801A;stroke-width:8;stroke-linecap:round;stroke-miterlimit:10;}
</style>
<g>
	
		<image style="overflow:visible;enable-background:new    ;" width="109" height="105" xlink:href="DD94CDBA412DFA4F.png"  transform="matrix(0.2268 0 0 0.2354 95.79 157.75)">
	</image>
</g>
<g>
	
		<image style="overflow:visible;enable-background:new    ;" width="109" height="109" xlink:href="DD94CDBA412DFA4D.png"  transform="matrix(0.2268 0 0 0.2268 185.74 136.98)">
	</image>
</g>
<title>ESKIMOO_SILLA1</title>
<g>
	<g id="Laag_1_1_">
		<path class="st0" d="M65.1,356.1v-64l27.2-5.4v-39.2c0-13.3,3.4-20.7,7.1-24.9l-0.7-2.7l6.7-1.6c1.4-0.6,2.8-0.9,4.3-1
			c31.2-7.3,118.3-32.8,157.5-40.8l3.1,5.6c59.4,104.9,54.9,142.8,57.5,156s-5.3,16.2-5.3,16.2l-24.2,7.9c0,0,0.4,15.1,0,35
			S288.1,425,288.1,425H139l-10-22.9c-0.8-13.7-2.7-28-4.3-42.9l-0.3-3.1L65.1,356.1z"/>
		<path class="st1" d="M194.1,402.1c-1.6-27.4-4.6-57.3-9.6-89.1c-5.4-34.8-12.8-69.2-22.1-103.2h21.8c9.3,34,16.7,68.4,22.1,103.2
			c5,31.8,7.9,61.7,9.6,89.1L194.1,402.1z"/>
		<path class="st2" d="M267.2,176.6c-40.2,8.2-126.6,39.5-158.6,47c-1.5,0.1-3,0.4-4.4,1c-4.4,1-10.8-1.1-10.8-1.1
			s-0.8,15.6-0.9,23.4c28.5,7.4,58.1,2.8,79.2-14.3c32.7,13.8,78.2-5.8,104.9-38.9C275.3,191.3,268.6,179,267.2,176.6z"/>
		<g>
			<defs>
				<path id="SVGID_1_" d="M65.1,356.1v-64l27.2-5.4v-39.2c0-13.3,3.4-20.7,7.1-24.9l-0.7-2.7l6.7-1.6c1.4-0.6,2.8-0.9,4.3-1
					c31.2-7.3,119.2-31.3,158.4-39.3c0.3,0.5,2.2,3.9,2.4,4.4c59.2,104.7,54.7,142.5,57.4,155.7s-5.3,16.2-5.3,16.2l-24.2,7.9
					c0,0,0.4,15.1,0,35S288.1,425,288.1,425H139c0,0-8.2-1.3-10-22.9c-1.4-16.6-2.7-28-4.3-42.9l-0.3-3.1L65.1,356.1z"/>
			</defs>
			<clipPath id="SVGID_2_">
				<use xlink:href="#SVGID_1_"  style="overflow:visible;"/>
			</clipPath>
			<g class="st3">
				<path class="st1" d="M89,356.1l-20.4,7.5c-11.9,0-21.6-9.6-21.6-21.6v-42.7c0-11.9,16.5-11,28.5-11h8.8
					C113,291.6,113,356.1,89,356.1z"/>
				<path class="st1" d="M298.4,375.6l-0.1-14.8l-2-18.4c-0.4-5.5,5-9.8,9.5-11.6l27.1-10.8l11.5,42.3L298.4,375.6z"/>
				<polygon class="st1" points="341,443.6 121.7,443.6 117.9,400.1 341,400.1 				"/>
			</g>
		</g>
		<path class="st0" d="M280.7,115.2c12.8,70.6-62.5,135-110.4,110.6c-41.5,38.5-127.5,5.6-140.4-65S60.8,14.4,130.1,1.8
			S267.9,44.6,280.7,115.2z"/>
		<path class="st4" d="M68.4,283.8c-6.8-12.9-7.4-33.4-16.1-33.7s-14.1,8.1-11.6,21.1c1.7,8.6-2.4,13.6-9.9,14s-29.1,4.2-30.6,30.3
			s8.7,34.4,20.4,36.6s19.6,3.9,44.5,4c8.5,0,12.8-10.5,14.7-23.6C82.9,310.9,75.2,296.7,68.4,283.8z"/>
		<path class="st4" d="M324.6,352.9c3.2,10.9,2,38.6-4.5,49.2s-12,20.2-17.9,17.1s-8-7.5-5.9-19.2s2-39,2-39L324.6,352.9z"/>
		<polygon class="st1" points="148.6,18 155.3,21.4 162.2,18.8 168.4,23 175.7,21.4 181.2,26.3 188.6,25.6 193.6,31.2 201,31.4 
			205.2,37.6 212.5,38.7 215.9,45.4 223,47.4 225.5,54.4 232.4,57.4 234,64.6 240.4,68.4 241.1,75.8 247,80.4 246.7,87.8 252,93 
			250.8,100.4 255.4,106.3 253.3,113.4 257.1,119.8 254.1,126.6 257.1,133.5 253.3,139.9 255.4,147 250.8,152.9 252,160.2 
			246.7,165.5 247,172.9 241.1,177.4 240.4,184.9 234,188.6 232.4,195.9 225.5,198.8 223,205.9 215.9,207.9 212.5,214.6 
			205.2,215.7 201,221.9 193.6,222.1 188.6,227.7 181.2,227 175.7,231.9 168.4,230.2 162.2,234.5 155.3,231.9 148.6,235.3 
			142,231.9 135,234.5 128.9,230.2 121.6,231.9 116,227 108.6,227.7 103.7,222.1 96.3,221.9 92.1,215.7 84.8,214.6 81.4,207.9 
			74.2,205.9 71.7,198.8 64.9,195.9 63.3,188.6 56.9,184.9 56.2,177.4 50.3,172.9 50.6,165.5 45.3,160.2 46.5,152.9 41.9,147 
			44,139.9 40.2,133.5 43.2,126.6 40.2,119.8 44,113.4 41.9,106.3 46.5,100.4 45.3,93 50.6,87.8 50.3,80.4 56.2,75.8 56.9,68.4 
			63.3,64.6 64.9,57.4 71.7,54.4 74.2,47.4 81.4,45.4 84.8,38.7 92.1,37.6 96.3,31.4 103.7,31.2 108.6,25.6 116,26.3 121.6,21.4 
			128.9,23 135,18.8 142,21.4 		"/>
		
			<ellipse transform="matrix(0.9659 -0.2588 0.2588 0.9659 -28.2224 42.0769)" class="st5" cx="145.7" cy="128.2" rx="86.9" ry="91.1"/>
		<g>
			<path class="st6" d="M219.4,112.6c5.4,17.6,12.8,64.8,8.8,96.9c-10.4,3.6-10.8,0.8-10.8,0.8s-1.1-20-12-49.1
				C206.4,128.7,219.4,112.6,219.4,112.6z"/>
			<path class="st6" d="M71.5,143.3c0.4,18.4,8.4,65.5,22.4,94.7c11,0.1,10.5-2.6,10.5-2.6s-5.3-19.4-4.2-50.4
				C88.9,154.4,71.5,143.3,71.5,143.3z"/>
			<path class="st7" d="M217.3,109c13.1,56.9-29.1,97.8-52.6,103.2s-79.3-12.8-92.5-69.8C62,98.2,87.8,61.9,127.9,52.7
				S207,64.7,217.3,109z"/>
			<path class="st8" d="M227.2,111.1c11.9,44.6,6.1,82.6-62.4,95.7s-85.4-8-97.3-52.6s14.4-90.7,58.4-102.5S215.2,66.5,227.2,111.1z
				"/>
			<path class="st6" d="M234.2,221.7c-0.2,6.7-12.7,21.3-12.7,21.3s-11.8-15.2-11.6-21.9c0.2-6.7,5.7-12,12.5-11.8
				C229.1,209.4,234.4,215,234.2,221.7L234.2,221.7L234.2,221.7z"/>
			<path class="st6" d="M92,251.4c2.3,6.3,18.8,16.2,18.8,16.2s6.3-18.1,4.1-24.4c-2.3-6.3-9.3-9.6-15.6-7.3
				C93,238.2,89.7,245.1,92,251.4L92,251.4z"/>
			<path class="st9" d="M106.7,235.7l-14.3,5.2c-1.1,0.4-2.2-0.2-2.6-1.2l-0.3-0.7c-0.4-1.1,0.2-2.2,1.2-2.6l14.3-5.2
				c1.1-0.4,2.2,0.2,2.6,1.2l0.3,0.7C108.3,234.1,107.7,235.3,106.7,235.7z"/>
			<path class="st6" d="M145.4,72c0,0,15.9,24.2,30.1,28.4c-21.1,8.6-53.2-18.2-53.2-18.2L145.4,72z"/>
			<path class="st9" d="M230.4,211.8l-15.2-0.9c-1.1-0.1-2-1-1.9-2.1l0-0.8c0.1-1.1,1-2,2.1-1.9l15.2,0.9c1.1,0.1,2,1,1.9,2.1l0,0.8
				C232.4,211,231.5,211.9,230.4,211.8z"/>
			<g>
				<defs>
					<path id="SVGID_3_" d="M220.1,112.1c10.2,44.3-33.3,85.9-57.4,91.4s-81.4-12.7-91.6-57C59.2,95.2,85.9,58.5,127,49
						S208.1,60.4,220.1,112.1z"/>
				</defs>
				<clipPath id="SVGID_4_">
					<use xlink:href="#SVGID_3_"  style="overflow:visible;"/>
				</clipPath>
				<g class="st10">
					<path class="st6" d="M64.5,146.5c6.2,7.1,51.5-20.5,80.8-70.9c5.4,15.7,75.4,43,80.8,34.8C261,84.9,186.4,22,125.4,32.9
						C26.6,50.5,51.2,131.4,64.5,146.5z"/>
				</g>
			</g>
			
				<ellipse transform="matrix(0.9659 -0.2588 0.2588 0.9659 -22.5024 61.5463)" class="st7" cx="222.5" cy="116.2" rx="6.9" ry="6.9"/>
			
				<ellipse transform="matrix(0.9659 -0.2588 0.2588 0.9659 -36.7478 23.4505)" class="st7" cx="70.7" cy="151.3" rx="6.9" ry="6.9"/>
			<path class="st6" d="M108.1,137.4c1.7-0.9,3.2-2.3,4.8-3.4c1.6-1.2,3.6-1.8,5.6-1.7c1,0,1.8-0.8,1.8-1.9c0-0.8-0.6-1.5-1.3-1.8
				c-4.8-1.5-11.2,3.2-11.9,8c-0.1,0.4,0.1,0.7,0.5,0.8C107.8,137.5,108,137.5,108.1,137.4L108.1,137.4z"/>
			<path class="st6" d="M186.2,118.9c-3.1-4.7-12.3-4.4-16-0.6c-1.4,1.5,0.5,4.2,2.3,2.9c1.7-1.3,3.8-1.9,5.9-1.8
				c2,0,4.9-0.4,6.6,0.7c0.4,0.2,1,0.1,1.2-0.4C186.4,119.5,186.4,119.1,186.2,118.9L186.2,118.9z"/>
			<path class="st11" d="M127.3,180.9c-1.7-0.3-1.9,2.7-0.3,3.8c9.2,6.1,21.6,16.4,34.4,13.1s19.5-15.8,25-27.2
				c0.8-1.7-1.1-4.3-2.4-3.1C173.2,178.6,147.4,184,127.3,180.9z"/>
			<path class="st12" d="M126.4,144.8c-3.8-2.7-11.8-3.4-16.2-2.4c-5.3,1.2-10.2,4.5-12.3,9.6c-0.8,2.1,2.2,3.6,3.6,2.1
				c3.7-3.9,6.2-7.1,11.7-8.2c4.5-0.9,8.7,1.3,13,0.4C127,146.1,126.9,145.2,126.4,144.8L126.4,144.8z"/>
			<path class="st12" d="M170.7,137.5c3.9-1.4,6.2-5.2,10.2-6.7c5.5-2.1,9.6-0.8,14.9,0.8c2.5,0.8,3.6-2.6,1.7-4
				c-4.6-3.2-11.2-3.3-16.2-1.2c-3.9,1.7-9.7,5.9-11.5,9.9C169.5,136.8,170,137.7,170.7,137.5L170.7,137.5z"/>
			<path class="st13" d="M142,164.6c3.3,3.8,8.4,5.4,13.3,4.4c4.1-0.9,8.6-4.9,9.4-9.1c0.2-0.8-0.3-1.6-1.1-1.8
				c-0.5-0.1-1,0-1.4,0.4c-2.7,2.8-4.7,4.7-8.6,5.4c-3.6,0.6-7.3,0.4-10.8-0.5c-0.4-0.1-0.8,0.2-0.9,0.6
				C141.8,164.1,141.8,164.4,142,164.6L142,164.6z"/>
			<g>
				<circle class="st14" cx="198" cy="149.2" r="10.2"/>
			</g>
			<g>
				<circle class="st14" cx="108" cy="170" r="10.2"/>
			</g>
		</g>
		<g>
			<defs>
				<rect id="SVGID_5_" x="104.4" y="264.2" width="29.4" height="91.9"/>
			</defs>
			<clipPath id="SVGID_6_">
				<use xlink:href="#SVGID_5_"  style="overflow:visible;"/>
			</clipPath>
			<g class="st15">
				<g class="st16">
					<path class="st17" d="M107.9,270.5c6.6,26.7,8.2,54,10.6,81.2c1.5,16.7,2.3,33.5,2.6,50.3c0.1,3.5,5.4,3.5,5.4,0
						c0.2-17.3-0.6-34.6-2.3-51.9c-2.4-26.8-5.2-54.8-14-80.3c-0.2-0.6-0.8-1-1.5-0.8C108.1,269.2,107.7,269.9,107.9,270.5
						L107.9,270.5z"/>
				</g>
			</g>
		</g>
		<g class="st16">
			<path class="st17" d="M277.1,240.4c10,38.5,17.4,77.7,20.8,117.4c0.1,0.7,0.4,3.2,0.4,3.2l4.2-1.3c-0.1-0.5-0.1-0.8-0.2-1.9
				c-3.5-39.9-11-79.7-23.5-117.9c-0.2-0.5-0.7-0.7-1.2-0.5C277.3,239.5,277,239.9,277.1,240.4L277.1,240.4z"/>
		</g>
		<g class="st18">
			<path class="st6" d="M38,286c2.1,1.7,3.8,4.3,5.5,6.4c4.5,5.1,7.7,11.2,9.3,17.8c1.7,7.9,1,16.1-3.8,22.8
				c-3.7,5.2-9.5,8.3-14.5,12.1c-3.8,2.9-1.7,8.8,3.3,7.8c7.3-1.5,14.2-9.1,17.9-15.4c4.5-7.8,5.5-17.3,4.1-26
				c-1.6-9.7-9.1-26.6-20.8-27.6c-0.7,0-1.3,0.6-1.3,1.4C37.7,285.5,37.8,285.8,38,286z"/>
		</g>
		<line class="st19" x1="163" y1="258.8" x2="213.8" y2="291.1"/>
		<line class="st19" x1="169.4" y1="296.3" x2="207.4" y2="253.6"/>
	</g>
</g>
</svg>
